<svg width="22" height="22" viewBox="0 0 22 22" fill="none" xmlns="http://www.w3.org/2000/svg">
<path d="M2.10205 16.3491V15.6377C2.10205 15.1338 2.22803 14.6708 2.47998 14.2487C2.73193 13.8266 3.08021 13.5041 3.52483 13.2812C4.3696 12.8514 5.24787 12.5105 6.15963 12.2586C7.0714 12.0066 8.00124 11.8807 8.94916 11.8807C9.15665 11.8807 9.31968 11.9734 9.43824 12.159C9.55681 12.3446 9.57904 12.5408 9.50494 12.7477C9.41601 13.0589 9.34932 13.3701 9.30486 13.6814C9.2604 13.9926 9.23817 14.3112 9.23817 14.6373C9.23817 15.0671 9.28263 15.4821 9.37155 15.8822C9.46048 16.2824 9.58645 16.6751 9.74948 17.0605C9.86804 17.3124 9.85707 17.5534 9.71658 17.7834C9.57608 18.0134 9.37955 18.1281 9.12701 18.1275H3.88052C3.39144 18.1275 2.97291 17.9536 2.62492 17.6056C2.27693 17.2576 2.10264 16.8388 2.10205 16.3491ZM15.4406 16.3491C15.9297 16.3491 16.3485 16.1751 16.6971 15.8271C17.0457 15.4791 17.2196 15.0603 17.2191 14.5706C17.2185 14.0809 17.0445 13.6624 16.6971 13.315C16.3497 12.9676 15.9309 12.7933 15.4406 12.7921C14.9503 12.7909 14.5318 12.9652 14.185 13.315C13.8382 13.6648 13.6639 14.0833 13.6621 14.5706C13.6603 15.0579 13.8346 15.4767 14.185 15.8271C14.5353 16.1775 14.9539 16.3514 15.4406 16.3491ZM9.21594 11.0137C8.23778 11.0137 7.40041 10.6654 6.70385 9.96881C6.00728 9.27224 5.65899 8.43488 5.65899 7.45672C5.65899 6.47856 6.00728 5.6412 6.70385 4.94463C7.40041 4.24806 8.23778 3.89978 9.21594 3.89978C10.1941 3.89978 11.0315 4.24806 11.728 4.94463C12.4246 5.6412 12.7729 6.47856 12.7729 7.45672C12.7729 8.43488 12.4246 9.27224 11.728 9.96881C11.0315 10.6654 10.1941 11.0137 9.21594 11.0137ZM14.418 18.3054L14.2846 17.6829C14.1067 17.6088 13.9401 17.5312 13.7848 17.45C13.6295 17.3687 13.47 17.2685 13.3064 17.1494L12.6617 17.3495C12.4691 17.4088 12.2802 17.4013 12.0953 17.3272C11.9103 17.2531 11.7657 17.1346 11.6613 16.9715L11.4835 16.6603C11.3797 16.4825 11.3427 16.2898 11.3723 16.0823C11.402 15.8748 11.4983 15.7044 11.6613 15.571L12.1504 15.1486C12.1208 14.9411 12.106 14.7485 12.106 14.5706C12.106 14.3928 12.1208 14.2001 12.1504 13.9926L11.6613 13.5702C11.4983 13.4368 11.402 13.27 11.3723 13.0696C11.3427 12.8692 11.3797 12.6804 11.4835 12.5031L11.6836 12.1697C11.7873 12.0066 11.9281 11.8881 12.106 11.814C12.2838 11.7399 12.4691 11.7325 12.6617 11.7917L13.3064 11.9918C13.4694 11.8733 13.6289 11.7731 13.7848 11.6913C13.9407 11.6095 14.1073 11.5318 14.2846 11.4583L14.418 10.8136C14.4624 10.6061 14.5626 10.4395 14.7185 10.3138C14.8744 10.1882 15.0558 10.125 15.2627 10.1244H15.6184C15.8259 10.1244 16.0076 10.1911 16.1635 10.3245C16.3194 10.4579 16.4193 10.6283 16.4632 10.8358L16.5966 11.4583C16.7744 11.5324 16.941 11.6139 17.0963 11.7028C17.2517 11.7917 17.4111 11.9029 17.5747 12.0363L18.175 11.8362C18.3825 11.7621 18.5826 11.7621 18.7752 11.8362C18.9679 11.9103 19.1161 12.0363 19.2198 12.2141L19.3977 12.5254C19.5014 12.7032 19.5385 12.8959 19.5088 13.1034C19.4792 13.3109 19.3829 13.4813 19.2198 13.6147L18.7308 14.0371C18.7604 14.2149 18.7752 14.4002 18.7752 14.5928C18.7752 14.7855 18.7604 14.9708 18.7308 15.1486L19.2198 15.571C19.3829 15.7044 19.4792 15.8713 19.5088 16.0716C19.5385 16.272 19.5014 16.4608 19.3977 16.6381L19.1976 16.9715C19.0939 17.1346 18.9531 17.2531 18.7752 17.3272C18.5974 17.4013 18.4121 17.4088 18.2194 17.3495L17.5747 17.1494C17.4117 17.268 17.2523 17.3678 17.0963 17.4491C16.9404 17.5303 16.7738 17.6082 16.5966 17.6829L16.4632 18.3276C16.4187 18.5351 16.3189 18.702 16.1635 18.8283C16.0082 18.9545 15.8265 19.0174 15.6184 19.0168H15.2627C15.0552 19.0168 14.8738 18.9501 14.7185 18.8167C14.5632 18.6833 14.463 18.5129 14.418 18.3054Z" fill="#161616"/>
</svg>
