<svg width="16" height="16" viewBox="0 0 16 16" fill="none" xmlns="http://www.w3.org/2000/svg">
<path d="M6.26245 3C6.56546 3.00022 6.7946 3.24551 6.79468 3.54688V12.4551C6.79468 12.7567 6.56517 12.998 6.26343 12.998L6.04077 13H6.03979C5.73837 13 5.46655 12.7614 5.46655 12.46V3.55176C5.46655 3.25029 5.71694 3.00494 6.01831 3.00488L6.26245 3ZM10.0261 3C10.3293 3 10.5563 3.24537 10.5564 3.54688V12.4551C10.5564 12.7567 10.3296 12.998 10.0281 12.998L9.80933 13H9.80737C9.50603 13 9.22827 12.7614 9.22827 12.46V3.55176C9.22827 3.2504 9.47969 3.00511 9.78101 3.00488L10.0261 3Z" fill="#ECBC40"/>
</svg>
