<svg width="20" height="20" viewBox="0 0 20 20" fill="none" xmlns="http://www.w3.org/2000/svg">
<path d="M7.55544 13.3884L15.657 5.28678C15.8482 5.09559 16.0712 5 16.3262 5C16.5811 5 16.8041 5.09559 16.9953 5.28678C17.1865 5.47797 17.2821 5.70516 17.2821 5.96836C17.2821 6.23157 17.1865 6.45844 16.9953 6.64899L8.2246 15.4436C8.03341 15.6348 7.81036 15.7304 7.55544 15.7304C7.30052 15.7304 7.07747 15.6348 6.88628 15.4436L2.77575 11.3331C2.58456 11.1419 2.49279 10.915 2.50044 10.6525C2.50809 10.3899 2.60782 10.1627 2.79965 9.97088C2.99147 9.77905 3.21867 9.68346 3.48123 9.68409C3.7438 9.68473 3.97067 9.78033 4.16186 9.97088L7.55544 13.3884Z" fill="#0D40C2"/>
</svg>
