<svg width="20" height="20" viewBox="0 0 20 20" fill="none" xmlns="http://www.w3.org/2000/svg">
<g opacity="0.7">
<path d="M10 11.1666L5.91671 15.2499C5.76393 15.4027 5.56949 15.4791 5.33337 15.4791C5.09726 15.4791 4.90282 15.4027 4.75004 15.2499C4.59726 15.0971 4.52087 14.9027 4.52087 14.6666C4.52087 14.4305 4.59726 14.236 4.75004 14.0833L8.83337 9.99992L4.75004 5.91659C4.59726 5.76381 4.52087 5.56936 4.52087 5.33325C4.52087 5.09714 4.59726 4.9027 4.75004 4.74992C4.90282 4.59714 5.09726 4.52075 5.33337 4.52075C5.56949 4.52075 5.76393 4.59714 5.91671 4.74992L10 8.83325L14.0834 4.74992C14.2362 4.59714 14.4306 4.52075 14.6667 4.52075C14.9028 4.52075 15.0973 4.59714 15.25 4.74992C15.4028 4.9027 15.4792 5.09714 15.4792 5.33325C15.4792 5.56936 15.4028 5.76381 15.25 5.91659L11.1667 9.99992L15.25 14.0833C15.4028 14.236 15.4792 14.4305 15.4792 14.6666C15.4792 14.9027 15.4028 15.0971 15.25 15.2499C15.0973 15.4027 14.9028 15.4791 14.6667 15.4791C14.4306 15.4791 14.2362 15.4027 14.0834 15.2499L10 11.1666Z" fill="#161616"/>
</g>
</svg>
