<svg width="16" height="16" viewBox="0 0 16 16" fill="none" xmlns="http://www.w3.org/2000/svg">
<g clip-path="url(#clip0_148_8297)">
<path d="M14.6097 10.1233C14.5381 10.0048 14.4097 9.93236 14.2713 9.93236H13.6272C13.5338 8.57442 12.9605 7.31051 11.9888 6.33876C11.017 5.36705 9.7531 4.79371 8.39516 4.70035V3.90442C8.39516 3.68613 8.21818 3.50916 7.9999 3.50916C7.78162 3.50916 7.60464 3.68613 7.60464 3.90442V4.70033C6.24669 4.79371 4.98279 5.36702 4.01104 6.33874C3.0393 7.31048 2.46599 8.57439 2.3726 9.93233H1.72849C1.59005 9.93233 1.46169 10.0048 1.39013 10.1233C1.31857 10.2418 1.31427 10.3892 1.37872 10.5117L1.80815 11.3276C2.18586 12.0452 2.9243 12.491 3.73531 12.491H12.2645C13.0755 12.491 13.8139 12.0452 14.1916 11.3276L14.6211 10.5117C14.6855 10.3892 14.6812 10.2419 14.6097 10.1233ZM7.9999 5.47705C10.5415 5.47705 12.6328 7.44186 12.8345 9.93236H3.16526C3.36703 7.44189 5.45831 5.47705 7.9999 5.47705ZM13.4921 10.9594C13.2515 11.4166 12.7811 11.7006 12.2645 11.7006H3.73531C3.21872 11.7006 2.74828 11.4166 2.50768 10.9594L2.38318 10.7229H13.6166L13.4921 10.9594Z" fill="#C0333A"/>
</g>
<defs>
<clipPath id="clip0_148_8297">
<rect width="13.3333" height="13.3333" fill="white" transform="translate(1.33325 1.33337)"/>
</clipPath>
</defs>
</svg>
