<svg width="22" height="22" viewBox="0 0 22 22" fill="none" xmlns="http://www.w3.org/2000/svg">
<path d="M3.66669 11C3.66669 11.2432 3.76326 11.4763 3.93517 11.6482C4.10708 11.8201 4.34024 11.9167 4.58335 11.9167C4.82647 11.9167 5.05963 11.8201 5.23153 11.6482C5.40344 11.4763 5.50002 11.2432 5.50002 11C5.50002 10.7569 5.40344 10.5238 5.23153 10.3519C5.05963 10.18 4.82647 10.0834 4.58335 10.0834C4.34024 10.0834 4.10708 10.18 3.93517 10.3519C3.76326 10.5238 3.66669 10.7569 3.66669 11ZM10.0834 11C10.0834 11.2432 10.1799 11.4763 10.3518 11.6482C10.5237 11.8201 10.7569 11.9167 11 11.9167C11.2431 11.9167 11.4763 11.8201 11.6482 11.6482C11.8201 11.4763 11.9167 11.2432 11.9167 11C11.9167 10.7569 11.8201 10.5238 11.6482 10.3519C11.4763 10.18 11.2431 10.0834 11 10.0834C10.7569 10.0834 10.5237 10.18 10.3518 10.3519C10.1799 10.5238 10.0834 10.7569 10.0834 11ZM16.5 11C16.5 11.2432 16.5966 11.4763 16.7685 11.6482C16.9404 11.8201 17.1736 11.9167 17.4167 11.9167C17.6598 11.9167 17.893 11.8201 18.0649 11.6482C18.2368 11.4763 18.3334 11.2432 18.3334 11C18.3334 10.7569 18.2368 10.5238 18.0649 10.3519C17.893 10.18 17.6598 10.0834 17.4167 10.0834C17.1736 10.0834 16.9404 10.18 16.7685 10.3519C16.5966 10.5238 16.5 10.7569 16.5 11Z" stroke="#B0B1B5" stroke-width="1.83333" stroke-linecap="round" stroke-linejoin="round"/>
</svg>
