<svg width="22" height="22" viewBox="0 0 22 22" fill="none" xmlns="http://www.w3.org/2000/svg">
<path d="M2.75 19.25V15.3542L14.85 3.27708C15.0333 3.10903 15.2359 2.97917 15.4578 2.8875C15.6796 2.79583 15.9124 2.75 16.1562 2.75C16.4001 2.75 16.6369 2.79583 16.8667 2.8875C17.0964 2.97917 17.2951 3.11667 17.4625 3.3L18.7229 4.58333C18.9062 4.75139 19.0401 4.95 19.1244 5.17917C19.2088 5.40833 19.2506 5.6375 19.25 5.86667C19.25 6.11111 19.2081 6.34425 19.1244 6.56608C19.0407 6.78792 18.9069 6.99019 18.7229 7.17292L6.64583 19.25H2.75ZM16.1333 7.15L17.4167 5.86667L16.1333 4.58333L14.85 5.86667L16.1333 7.15Z" fill="#161616"/>
</svg>
