<svg width="20" height="20" viewBox="0 0 20 20" fill="none" xmlns="http://www.w3.org/2000/svg">
<path d="M17.4176 9.7442C17.2837 9.55711 14.0623 5.16602 9.99997 5.16602C5.93762 5.16602 2.71628 9.55711 2.5824 9.74423C2.47253 9.89701 2.47253 10.103 2.5824 10.2558C2.71628 10.4429 5.93765 14.834 9.99997 14.834C14.0623 14.834 17.2837 10.4429 17.4176 10.2558C17.5275 10.103 17.5275 9.89698 17.4176 9.7442ZM9.99997 13.0762C8.30395 13.0762 6.92381 11.696 6.92381 9.99999C6.92381 8.30397 8.30395 6.92383 9.99997 6.92383C11.696 6.92383 13.0761 8.30397 13.0761 9.99999C13.0761 11.696 11.696 13.0762 9.99997 13.0762Z" fill="#161616"/>
<path d="M10 8.24219C9.0307 8.24219 8.24219 9.0307 8.24219 10C8.24219 10.9693 9.0307 11.7578 10 11.7578C10.9693 11.7578 11.7578 10.9693 11.7578 10C11.7579 9.0307 10.9693 8.24219 10 8.24219Z" fill="#161616"/>
</svg>
