<svg width="20" height="20" viewBox="0 0 20 20" fill="none" xmlns="http://www.w3.org/2000/svg">
<path d="M17.3003 16.336L14.4148 13.4506C16.1681 12.1308 17.3022 10.4997 17.3806 10.3853C17.5398 10.153 17.5398 9.84682 17.3806 9.6146C17.2476 9.42055 14.078 4.86257 10.0002 4.86257C8.82419 4.86262 7.72401 5.24194 6.75025 5.78593L3.66394 2.69972C3.39772 2.43345 2.96604 2.4334 2.69972 2.69972C2.4334 2.96604 2.43345 3.39767 2.69972 3.66394L5.58512 6.54929L14.0323 14.9964L16.3361 17.3002C16.4692 17.4333 16.6437 17.4999 16.8182 17.4999C16.9927 17.5 17.1671 17.4334 17.3002 17.3002C17.5666 17.0339 17.5666 16.6023 17.3003 16.336Z" fill="#161616"/>
<path d="M2.61933 9.61484C2.4602 9.84707 2.46024 10.1532 2.61933 10.3855C2.75224 10.5796 5.92155 15.1375 10.0001 15.1376C10.6667 15.1376 11.309 15.0154 11.9177 14.8107L4.53851 7.4314C3.39056 8.50412 2.68074 9.52516 2.61933 9.61484Z" fill="#161616"/>
</svg>
