<svg width="24" height="24" viewBox="0 0 24 24" fill="none" xmlns="http://www.w3.org/2000/svg">
<path d="M10.0496 8.24035V16.1145C10.0587 16.6915 10.2943 17.2418 10.7056 17.6466C11.1168 18.0515 11.6707 18.2783 12.2478 18.2783C12.8249 18.2783 13.3788 18.0515 13.7901 17.6466C14.2013 17.2418 14.437 16.6915 14.4461 16.1145L14.4532 5.77195C14.4592 5.27878 14.3672 4.78933 14.1826 4.33196C13.998 3.8746 13.7245 3.45843 13.3779 3.10757C13.0312 2.75671 12.6184 2.47815 12.1633 2.28802C11.7082 2.0979 11.2199 2 10.7267 2C10.2335 2 9.74523 2.0979 9.29014 2.28802C8.83505 2.47815 8.42223 2.75671 8.0756 3.10757C7.72897 3.45843 7.45543 3.8746 7.27085 4.33196C7.08626 4.78933 6.99429 5.27878 7.00027 5.77195V16.1842C7.02019 17.5604 7.58086 18.8735 8.56111 19.8397C9.54135 20.8058 10.8624 21.3474 12.2388 21.3474C13.6151 21.3474 14.9362 20.8058 15.9164 19.8397C16.8967 18.8735 17.4573 17.5604 17.4773 16.1842V6.45433" stroke="#B0B1B5" stroke-width="1.75531" stroke-miterlimit="10" stroke-linecap="square"/>
</svg>
