<svg width="24" height="24" viewBox="0 0 24 24" fill="none" xmlns="http://www.w3.org/2000/svg">
<path d="M4.4 19.6C3.8775 19.6 3.43037 19.4141 3.0586 19.0424C2.68683 18.6706 2.50063 18.2232 2.5 17.7V6.30002C2.5 5.77752 2.6862 5.33039 3.0586 4.95862C3.431 4.58686 3.87813 4.40066 4.4 4.40002H19.6C20.1225 4.40002 20.5699 4.58622 20.9423 4.95862C21.3147 5.33102 21.5006 5.77816 21.5 6.30002V17.7C21.5 18.2225 21.3141 18.67 20.9423 19.0424C20.5706 19.4148 20.1231 19.6007 19.6 19.6H4.4ZM12 12.95L4.4 8.20002V17.7H19.6V8.20002L12 12.95ZM12 11.05L19.6 6.30002H4.4L12 11.05ZM4.4 8.20002V6.30002V17.7V8.20002Z" fill="#161616"/>
</svg>
