<svg width="24" height="24" viewBox="0 0 24 24" fill="none" xmlns="http://www.w3.org/2000/svg">
<path d="M9.882 15C13.261 15 16 12.538 16 9.5C16 6.462 13.261 4 9.882 4C6.504 4 3.765 6.462 3.765 9.5C3.765 10.318 3.963 11.094 4.319 11.792L3 15L6.824 14.264C7.76913 14.7522 8.81825 15.0047 9.882 15Z" stroke="#161616" stroke-width="2" stroke-linejoin="round"/>
<path d="M10.8042 18.124C11.8124 18.7028 12.9557 19.005 14.1182 19C15.1823 19.0049 16.2318 18.7524 17.1772 18.264L21.0002 19L19.6802 15.792C20.0453 15.0832 20.2356 14.2973 20.2352 13.5C20.2352 12.255 19.7752 11.107 19.0002 10.185C18.2512 9.29501 17.2082 8.61601 16.0002 8.26501" stroke="#161616" stroke-width="2" stroke-linecap="round" stroke-linejoin="round"/>
<path d="M13 10.5C12.4477 10.5 12 10.0523 12 9.5C12 8.94772 12.4477 8.5 13 8.5C13.5523 8.5 14 8.94772 14 9.5C14 10.0523 13.5523 10.5 13 10.5Z" fill="#161616"/>
<path d="M10 10.5C9.44772 10.5 9 10.0523 9 9.5C9 8.94772 9.44772 8.5 10 8.5C10.5523 8.5 11 8.94772 11 9.5C11 10.0523 10.5523 10.5 10 10.5Z" fill="#161616"/>
<path d="M7 10.5C6.44772 10.5 6 10.0523 6 9.5C6 8.94772 6.44772 8.5 7 8.5C7.55228 8.5 8 8.94772 8 9.5C8 10.0523 7.55228 10.5 7 10.5Z" fill="#161616"/>
</svg>
