<svg width="22" height="22" viewBox="0 0 22 22" fill="none" xmlns="http://www.w3.org/2000/svg">
<path d="M12.4573 4.38847L12.4573 10.3434L18.3814 10.3434C18.5165 10.3392 18.651 10.3623 18.7769 10.4114C18.9028 10.4604 19.0175 10.5344 19.1142 10.6288C19.3188 10.8334 19.4337 11.1109 19.4337 11.4002C19.4337 11.6895 19.3188 11.967 19.1142 12.1716C19.0214 12.2679 18.9099 12.3443 18.7866 12.3961C18.6632 12.4478 18.5306 12.4738 18.3968 12.4724L12.4341 12.4338V18.4351C12.4369 18.6866 12.343 18.9295 12.1719 19.1139C11.9673 19.3184 11.6898 19.4334 11.4005 19.4334C11.1112 19.4334 10.8337 19.3184 10.6291 19.1139C10.5268 19.0196 10.4451 18.9051 10.3893 18.7777C10.3335 18.6502 10.3049 18.5125 10.3052 18.3733L10.3437 12.457L4.40422 12.457C4.27173 12.4591 4.14012 12.435 4.017 12.386C3.89387 12.337 3.78166 12.2641 3.68685 12.1716C3.48227 11.967 3.36734 11.6895 3.36734 11.4002C3.36734 11.1109 3.48227 10.8334 3.68685 10.6288C3.77962 10.5325 3.89111 10.4561 4.01447 10.4043C4.13783 10.3526 4.27046 10.3266 4.40422 10.328L10.3669 10.3666L10.3669 4.36533C10.3641 4.11382 10.458 3.87085 10.6291 3.68653C10.8337 3.48195 11.1112 3.36702 11.4005 3.36702C11.6898 3.36702 11.9673 3.48195 12.1719 3.68653C12.3547 3.87397 12.4573 4.12621 12.4573 4.38847Z" fill="#161616"/>
</svg>
