<svg width="28" height="28" viewBox="0 0 28 28" fill="none" xmlns="http://www.w3.org/2000/svg">
<g opacity="0.7">
<path d="M7.33325 14.0001C7.33325 14.2211 7.42105 14.4331 7.57733 14.5893C7.73361 14.7456 7.94557 14.8334 8.16659 14.8334C8.3876 14.8334 8.59956 14.7456 8.75584 14.5893C8.91212 14.4331 8.99992 14.2211 8.99992 14.0001C8.99992 13.7791 8.91212 13.5671 8.75584 13.4108C8.59956 13.2545 8.3876 13.1667 8.16659 13.1667C7.94557 13.1667 7.73361 13.2545 7.57733 13.4108C7.42105 13.5671 7.33325 13.7791 7.33325 14.0001ZM13.1666 14.0001C13.1666 14.2211 13.2544 14.4331 13.4107 14.5893C13.5669 14.7456 13.7789 14.8334 13.9999 14.8334C14.2209 14.8334 14.4329 14.7456 14.5892 14.5893C14.7455 14.4331 14.8333 14.2211 14.8333 14.0001C14.8333 13.7791 14.7455 13.5671 14.5892 13.4108C14.4329 13.2545 14.2209 13.1667 13.9999 13.1667C13.7789 13.1667 13.5669 13.2545 13.4107 13.4108C13.2544 13.5671 13.1666 13.7791 13.1666 14.0001ZM18.9999 14.0001C18.9999 14.2211 19.0877 14.4331 19.244 14.5893C19.4003 14.7456 19.6122 14.8334 19.8333 14.8334C20.0543 14.8334 20.2662 14.7456 20.4225 14.5893C20.5788 14.4331 20.6666 14.2211 20.6666 14.0001C20.6666 13.7791 20.5788 13.5671 20.4225 13.4108C20.2662 13.2545 20.0543 13.1667 19.8333 13.1667C19.6122 13.1667 19.4003 13.2545 19.244 13.4108C19.0877 13.5671 18.9999 13.7791 18.9999 14.0001Z" stroke="#161616" stroke-width="1.66667" stroke-linecap="round" stroke-linejoin="round"/>
</g>
</svg>
