<svg width="24" height="24" viewBox="0 0 24 24" fill="none" xmlns="http://www.w3.org/2000/svg">
<path d="M12 2.5C17.2487 2.50001 21.5 6.75125 21.5 12C21.5 17.2487 17.2487 21.5 12 21.5C6.75129 21.5 2.50001 17.2487 2.5 12C2.5 6.75128 6.75128 2.5 12 2.5ZM12 4.40039C7.8105 4.40039 4.40039 7.8105 4.40039 12C4.4004 16.1895 7.81051 19.5996 12 19.5996C16.1895 19.5996 19.5996 16.1895 19.5996 12C19.5996 7.81051 16.1895 4.4004 12 4.40039ZM12.9502 16.75H11.0498V11.0498H12.9502V16.75ZM12.9502 7.25V9.15039H11.0498V7.25H12.9502Z" fill="#0BA51A"/>
</svg>
