<svg width="19" height="19" viewBox="0 0 19 19" fill="none" xmlns="http://www.w3.org/2000/svg">
<path d="M0.944336 9.44446C0.944336 10.5607 1.16419 11.666 1.59136 12.6973C2.01852 13.7285 2.64463 14.6656 3.43393 15.4549C4.22323 16.2442 5.16026 16.8703 6.19153 17.2974C7.22279 17.7246 8.3281 17.9445 9.44434 17.9445C10.5606 17.9445 11.6659 17.7246 12.6971 17.2974C13.7284 16.8703 14.6654 16.2442 15.4547 15.4549C16.244 14.6656 16.8701 13.7285 17.2973 12.6973C17.7245 11.666 17.9443 10.5607 17.9443 9.44446C17.9443 7.19012 17.0488 5.02811 15.4547 3.43405C13.8607 1.83999 11.6987 0.944458 9.44434 0.944458C7.19 0.944458 5.02799 1.83999 3.43393 3.43405C1.83987 5.02811 0.944336 7.19012 0.944336 9.44446Z" stroke="#9747FF" stroke-width="1.88889" stroke-linecap="round" stroke-linejoin="round"/>
<path d="M9.44434 4.72229V9.44451L12.2777 12.2778" stroke="#9747FF" stroke-width="1.88889" stroke-linecap="round" stroke-linejoin="round"/>
</svg>
